<mxfile host="app.diagrams.net" modified="2023-11-06T00:59:48.676Z" agent="Mozilla/5.0 (Windows NT 10.0; Win64; x64) AppleWebKit/537.36 (KHTML, like Gecko) Chrome/114.0.0.0 Safari/537.36" etag="ynC4ZyzFKaQNJuWuwIEm" version="22.0.8" type="device">
  <diagram name="Page-1" id="ben2kIiIfCoBEz7OFsYk">
    <mxGraphModel dx="1434" dy="1896" grid="1" gridSize="10" guides="1" tooltips="1" connect="1" arrows="1" fold="1" page="1" pageScale="1" pageWidth="850" pageHeight="1100" math="0" shadow="0">
      <root>
        <mxCell id="0" />
        <mxCell id="1" parent="0" />
        <mxCell id="Zk7HNToO3OFMtX9oZNZT-54" value="Tao chuyen xe" style="strokeWidth=1;shadow=0;dashed=0;align=center;html=1;shape=mxgraph.mockup.containers.window;align=left;verticalAlign=top;spacingLeft=8;strokeColor2=#008cff;strokeColor3=#c4c4c4;fontColor=#666666;mainText=;fontSize=17;labelBackgroundColor=none;whiteSpace=wrap;rounded=1;" vertex="1" parent="1">
          <mxGeometry x="160" y="-120" width="550" height="380" as="geometry" />
        </mxCell>
        <mxCell id="Zk7HNToO3OFMtX9oZNZT-55" value="" style="strokeWidth=1;shadow=0;dashed=0;align=center;html=1;shape=mxgraph.mockup.forms.rrect;rSize=5;strokeColor=#999999;fillColor=#ffffff;rounded=1;" vertex="1" parent="1">
          <mxGeometry x="200" width="160" height="175" as="geometry" />
        </mxCell>
        <mxCell id="Zk7HNToO3OFMtX9oZNZT-56" value="October 2014" style="strokeWidth=1;shadow=0;dashed=0;align=center;html=1;shape=mxgraph.mockup.forms.anchor;fontColor=#999999;rounded=1;" vertex="1" parent="Zk7HNToO3OFMtX9oZNZT-55">
          <mxGeometry x="30" y="8" width="100" height="20" as="geometry" />
        </mxCell>
        <mxCell id="Zk7HNToO3OFMtX9oZNZT-57" value="&lt;" style="strokeWidth=1;shadow=0;dashed=0;align=center;html=1;shape=mxgraph.mockup.forms.rrect;rSize=4;strokeColor=#999999;fontColor=#008cff;fontSize=19;fontStyle=1;rounded=1;" vertex="1" parent="Zk7HNToO3OFMtX9oZNZT-55">
          <mxGeometry x="8" y="8" width="25" height="20" as="geometry" />
        </mxCell>
        <mxCell id="Zk7HNToO3OFMtX9oZNZT-58" value="&gt;" style="strokeWidth=1;shadow=0;dashed=0;align=center;html=1;shape=mxgraph.mockup.forms.rrect;rSize=4;strokeColor=#999999;fontColor=#008cff;fontSize=19;fontStyle=1;rounded=1;" vertex="1" parent="Zk7HNToO3OFMtX9oZNZT-55">
          <mxGeometry x="127" y="8" width="25" height="20" as="geometry" />
        </mxCell>
        <mxCell id="Zk7HNToO3OFMtX9oZNZT-59" value="Mo" style="strokeWidth=1;shadow=0;dashed=0;align=center;html=1;shape=mxgraph.mockup.forms.anchor;fontColor=#999999;rounded=1;" vertex="1" parent="Zk7HNToO3OFMtX9oZNZT-55">
          <mxGeometry x="10" y="28" width="20" height="20" as="geometry" />
        </mxCell>
        <mxCell id="Zk7HNToO3OFMtX9oZNZT-60" value="Tu" style="strokeWidth=1;shadow=0;dashed=0;align=center;html=1;shape=mxgraph.mockup.forms.anchor;fontColor=#999999;rounded=1;" vertex="1" parent="Zk7HNToO3OFMtX9oZNZT-55">
          <mxGeometry x="30" y="28" width="20" height="20" as="geometry" />
        </mxCell>
        <mxCell id="Zk7HNToO3OFMtX9oZNZT-61" value="We" style="strokeWidth=1;shadow=0;dashed=0;align=center;html=1;shape=mxgraph.mockup.forms.anchor;fontColor=#999999;rounded=1;" vertex="1" parent="Zk7HNToO3OFMtX9oZNZT-55">
          <mxGeometry x="50" y="28" width="20" height="20" as="geometry" />
        </mxCell>
        <mxCell id="Zk7HNToO3OFMtX9oZNZT-62" value="Th" style="strokeWidth=1;shadow=0;dashed=0;align=center;html=1;shape=mxgraph.mockup.forms.anchor;fontColor=#999999;rounded=1;" vertex="1" parent="Zk7HNToO3OFMtX9oZNZT-55">
          <mxGeometry x="70" y="28" width="20" height="20" as="geometry" />
        </mxCell>
        <mxCell id="Zk7HNToO3OFMtX9oZNZT-63" value="Fr" style="strokeWidth=1;shadow=0;dashed=0;align=center;html=1;shape=mxgraph.mockup.forms.anchor;fontColor=#999999;rounded=1;" vertex="1" parent="Zk7HNToO3OFMtX9oZNZT-55">
          <mxGeometry x="90" y="28" width="20" height="20" as="geometry" />
        </mxCell>
        <mxCell id="Zk7HNToO3OFMtX9oZNZT-64" value="Sa" style="strokeWidth=1;shadow=0;dashed=0;align=center;html=1;shape=mxgraph.mockup.forms.anchor;fontColor=#999999;rounded=1;" vertex="1" parent="Zk7HNToO3OFMtX9oZNZT-55">
          <mxGeometry x="110" y="28" width="20" height="20" as="geometry" />
        </mxCell>
        <mxCell id="Zk7HNToO3OFMtX9oZNZT-65" value="Su" style="strokeWidth=1;shadow=0;dashed=0;align=center;html=1;shape=mxgraph.mockup.forms.anchor;fontColor=#999999;rounded=1;" vertex="1" parent="Zk7HNToO3OFMtX9oZNZT-55">
          <mxGeometry x="130" y="28" width="20" height="20" as="geometry" />
        </mxCell>
        <mxCell id="Zk7HNToO3OFMtX9oZNZT-66" value="1" style="strokeWidth=1;shadow=0;dashed=0;align=center;html=1;shape=mxgraph.mockup.forms.rrect;rSize=0;strokeColor=#999999;fontColor=#999999;rounded=1;" vertex="1" parent="Zk7HNToO3OFMtX9oZNZT-55">
          <mxGeometry x="10" y="48" width="20" height="20" as="geometry" />
        </mxCell>
        <mxCell id="Zk7HNToO3OFMtX9oZNZT-67" value="2" style="strokeWidth=1;shadow=0;dashed=0;align=center;html=1;shape=mxgraph.mockup.forms.rrect;rSize=0;strokeColor=#999999;fontColor=#999999;rounded=1;" vertex="1" parent="Zk7HNToO3OFMtX9oZNZT-55">
          <mxGeometry x="30" y="48" width="20" height="20" as="geometry" />
        </mxCell>
        <mxCell id="Zk7HNToO3OFMtX9oZNZT-68" value="3" style="strokeWidth=1;shadow=0;dashed=0;align=center;html=1;shape=mxgraph.mockup.forms.rrect;rSize=0;strokeColor=#999999;fontColor=#999999;rounded=1;" vertex="1" parent="Zk7HNToO3OFMtX9oZNZT-55">
          <mxGeometry x="50" y="48" width="20" height="20" as="geometry" />
        </mxCell>
        <mxCell id="Zk7HNToO3OFMtX9oZNZT-69" value="4" style="strokeWidth=1;shadow=0;dashed=0;align=center;html=1;shape=mxgraph.mockup.forms.rrect;rSize=0;strokeColor=#999999;fontColor=#999999;rounded=1;" vertex="1" parent="Zk7HNToO3OFMtX9oZNZT-55">
          <mxGeometry x="70" y="48" width="20" height="20" as="geometry" />
        </mxCell>
        <mxCell id="Zk7HNToO3OFMtX9oZNZT-70" value="5" style="strokeWidth=1;shadow=0;dashed=0;align=center;html=1;shape=mxgraph.mockup.forms.rrect;rSize=0;strokeColor=#999999;fontColor=#999999;rounded=1;" vertex="1" parent="Zk7HNToO3OFMtX9oZNZT-55">
          <mxGeometry x="90" y="48" width="20" height="20" as="geometry" />
        </mxCell>
        <mxCell id="Zk7HNToO3OFMtX9oZNZT-71" value="6" style="strokeWidth=1;shadow=0;dashed=0;align=center;html=1;shape=mxgraph.mockup.forms.rrect;rSize=0;strokeColor=#999999;fontColor=#999999;rounded=1;" vertex="1" parent="Zk7HNToO3OFMtX9oZNZT-55">
          <mxGeometry x="110" y="48" width="20" height="20" as="geometry" />
        </mxCell>
        <mxCell id="Zk7HNToO3OFMtX9oZNZT-72" value="7" style="strokeWidth=1;shadow=0;dashed=0;align=center;html=1;shape=mxgraph.mockup.forms.rrect;rSize=0;strokeColor=#999999;fontColor=#999999;rounded=1;" vertex="1" parent="Zk7HNToO3OFMtX9oZNZT-55">
          <mxGeometry x="130" y="48" width="20" height="20" as="geometry" />
        </mxCell>
        <mxCell id="Zk7HNToO3OFMtX9oZNZT-73" value="8" style="strokeWidth=1;shadow=0;dashed=0;align=center;html=1;shape=mxgraph.mockup.forms.rrect;rSize=0;strokeColor=#999999;fontColor=#999999;rounded=1;" vertex="1" parent="Zk7HNToO3OFMtX9oZNZT-55">
          <mxGeometry x="10" y="68" width="20" height="20" as="geometry" />
        </mxCell>
        <mxCell id="Zk7HNToO3OFMtX9oZNZT-74" value="9" style="strokeWidth=1;shadow=0;dashed=0;align=center;html=1;shape=mxgraph.mockup.forms.rrect;rSize=0;strokeColor=#999999;fontColor=#999999;rounded=1;" vertex="1" parent="Zk7HNToO3OFMtX9oZNZT-55">
          <mxGeometry x="30" y="68" width="20" height="20" as="geometry" />
        </mxCell>
        <mxCell id="Zk7HNToO3OFMtX9oZNZT-75" value="10" style="strokeWidth=1;shadow=0;dashed=0;align=center;html=1;shape=mxgraph.mockup.forms.rrect;rSize=0;strokeColor=#999999;fontColor=#999999;rounded=1;" vertex="1" parent="Zk7HNToO3OFMtX9oZNZT-55">
          <mxGeometry x="50" y="68" width="20" height="20" as="geometry" />
        </mxCell>
        <mxCell id="Zk7HNToO3OFMtX9oZNZT-76" value="11" style="strokeWidth=1;shadow=0;dashed=0;align=center;html=1;shape=mxgraph.mockup.forms.rrect;rSize=0;strokeColor=#999999;fontColor=#999999;rounded=1;" vertex="1" parent="Zk7HNToO3OFMtX9oZNZT-55">
          <mxGeometry x="70" y="68" width="20" height="20" as="geometry" />
        </mxCell>
        <mxCell id="Zk7HNToO3OFMtX9oZNZT-77" value="12" style="strokeWidth=1;shadow=0;dashed=0;align=center;html=1;shape=mxgraph.mockup.forms.rrect;rSize=0;strokeColor=#999999;fontColor=#999999;rounded=1;" vertex="1" parent="Zk7HNToO3OFMtX9oZNZT-55">
          <mxGeometry x="90" y="68" width="20" height="20" as="geometry" />
        </mxCell>
        <mxCell id="Zk7HNToO3OFMtX9oZNZT-78" value="13" style="strokeWidth=1;shadow=0;dashed=0;align=center;html=1;shape=mxgraph.mockup.forms.rrect;rSize=0;strokeColor=#999999;fontColor=#999999;rounded=1;" vertex="1" parent="Zk7HNToO3OFMtX9oZNZT-55">
          <mxGeometry x="110" y="68" width="20" height="20" as="geometry" />
        </mxCell>
        <mxCell id="Zk7HNToO3OFMtX9oZNZT-79" value="14" style="strokeWidth=1;shadow=0;dashed=0;align=center;html=1;shape=mxgraph.mockup.forms.rrect;rSize=0;strokeColor=#999999;fontColor=#999999;rounded=1;" vertex="1" parent="Zk7HNToO3OFMtX9oZNZT-55">
          <mxGeometry x="130" y="68" width="20" height="20" as="geometry" />
        </mxCell>
        <mxCell id="Zk7HNToO3OFMtX9oZNZT-80" value="15" style="strokeWidth=1;shadow=0;dashed=0;align=center;html=1;shape=mxgraph.mockup.forms.rrect;rSize=0;strokeColor=#999999;fontColor=#999999;rounded=1;" vertex="1" parent="Zk7HNToO3OFMtX9oZNZT-55">
          <mxGeometry x="10" y="88" width="20" height="20" as="geometry" />
        </mxCell>
        <mxCell id="Zk7HNToO3OFMtX9oZNZT-81" value="16" style="strokeWidth=1;shadow=0;dashed=0;align=center;html=1;shape=mxgraph.mockup.forms.rrect;rSize=0;strokeColor=#999999;fontColor=#999999;rounded=1;" vertex="1" parent="Zk7HNToO3OFMtX9oZNZT-55">
          <mxGeometry x="30" y="88" width="20" height="20" as="geometry" />
        </mxCell>
        <mxCell id="Zk7HNToO3OFMtX9oZNZT-82" value="17" style="strokeWidth=1;shadow=0;dashed=0;align=center;html=1;shape=mxgraph.mockup.forms.rrect;rSize=0;strokeColor=#999999;fontColor=#999999;rounded=1;" vertex="1" parent="Zk7HNToO3OFMtX9oZNZT-55">
          <mxGeometry x="50" y="88" width="20" height="20" as="geometry" />
        </mxCell>
        <mxCell id="Zk7HNToO3OFMtX9oZNZT-83" value="18" style="strokeWidth=1;shadow=0;dashed=0;align=center;html=1;shape=mxgraph.mockup.forms.rrect;rSize=0;strokeColor=#999999;fontColor=#999999;rounded=1;" vertex="1" parent="Zk7HNToO3OFMtX9oZNZT-55">
          <mxGeometry x="70" y="88" width="20" height="20" as="geometry" />
        </mxCell>
        <mxCell id="Zk7HNToO3OFMtX9oZNZT-84" value="19" style="strokeWidth=1;shadow=0;dashed=0;align=center;html=1;shape=mxgraph.mockup.forms.rrect;rSize=0;strokeColor=#999999;fontColor=#999999;rounded=1;" vertex="1" parent="Zk7HNToO3OFMtX9oZNZT-55">
          <mxGeometry x="90" y="88" width="20" height="20" as="geometry" />
        </mxCell>
        <mxCell id="Zk7HNToO3OFMtX9oZNZT-85" value="20" style="strokeWidth=1;shadow=0;dashed=0;align=center;html=1;shape=mxgraph.mockup.forms.rrect;rSize=0;strokeColor=#999999;fontColor=#999999;rounded=1;" vertex="1" parent="Zk7HNToO3OFMtX9oZNZT-55">
          <mxGeometry x="110" y="88" width="20" height="20" as="geometry" />
        </mxCell>
        <mxCell id="Zk7HNToO3OFMtX9oZNZT-86" value="21" style="strokeWidth=1;shadow=0;dashed=0;align=center;html=1;shape=mxgraph.mockup.forms.rrect;rSize=0;strokeColor=#999999;fontColor=#999999;rounded=1;" vertex="1" parent="Zk7HNToO3OFMtX9oZNZT-55">
          <mxGeometry x="130" y="88" width="20" height="20" as="geometry" />
        </mxCell>
        <mxCell id="Zk7HNToO3OFMtX9oZNZT-87" value="22" style="strokeWidth=1;shadow=0;dashed=0;align=center;html=1;shape=mxgraph.mockup.forms.rrect;rSize=0;strokeColor=#999999;fontColor=#999999;rounded=1;" vertex="1" parent="Zk7HNToO3OFMtX9oZNZT-55">
          <mxGeometry x="10" y="108" width="20" height="20" as="geometry" />
        </mxCell>
        <mxCell id="Zk7HNToO3OFMtX9oZNZT-88" value="23" style="strokeWidth=1;shadow=0;dashed=0;align=center;html=1;shape=mxgraph.mockup.forms.rrect;rSize=0;strokeColor=#999999;fontColor=#999999;rounded=1;" vertex="1" parent="Zk7HNToO3OFMtX9oZNZT-55">
          <mxGeometry x="30" y="108" width="20" height="20" as="geometry" />
        </mxCell>
        <mxCell id="Zk7HNToO3OFMtX9oZNZT-89" value="25" style="strokeWidth=1;shadow=0;dashed=0;align=center;html=1;shape=mxgraph.mockup.forms.rrect;rSize=0;strokeColor=#999999;fontColor=#999999;rounded=1;" vertex="1" parent="Zk7HNToO3OFMtX9oZNZT-55">
          <mxGeometry x="70" y="108" width="20" height="20" as="geometry" />
        </mxCell>
        <mxCell id="Zk7HNToO3OFMtX9oZNZT-90" value="26" style="strokeWidth=1;shadow=0;dashed=0;align=center;html=1;shape=mxgraph.mockup.forms.rrect;rSize=0;strokeColor=#999999;fontColor=#999999;rounded=1;" vertex="1" parent="Zk7HNToO3OFMtX9oZNZT-55">
          <mxGeometry x="90" y="108" width="20" height="20" as="geometry" />
        </mxCell>
        <mxCell id="Zk7HNToO3OFMtX9oZNZT-91" value="27" style="strokeWidth=1;shadow=0;dashed=0;align=center;html=1;shape=mxgraph.mockup.forms.rrect;rSize=0;strokeColor=#999999;fontColor=#999999;rounded=1;" vertex="1" parent="Zk7HNToO3OFMtX9oZNZT-55">
          <mxGeometry x="110" y="108" width="20" height="20" as="geometry" />
        </mxCell>
        <mxCell id="Zk7HNToO3OFMtX9oZNZT-92" value="28" style="strokeWidth=1;shadow=0;dashed=0;align=center;html=1;shape=mxgraph.mockup.forms.rrect;rSize=0;strokeColor=#999999;fontColor=#999999;rounded=1;" vertex="1" parent="Zk7HNToO3OFMtX9oZNZT-55">
          <mxGeometry x="130" y="108" width="20" height="20" as="geometry" />
        </mxCell>
        <mxCell id="Zk7HNToO3OFMtX9oZNZT-93" value="29" style="strokeWidth=1;shadow=0;dashed=0;align=center;html=1;shape=mxgraph.mockup.forms.rrect;rSize=0;strokeColor=#999999;fontColor=#999999;rounded=1;" vertex="1" parent="Zk7HNToO3OFMtX9oZNZT-55">
          <mxGeometry x="10" y="128" width="20" height="20" as="geometry" />
        </mxCell>
        <mxCell id="Zk7HNToO3OFMtX9oZNZT-94" value="30" style="strokeWidth=1;shadow=0;dashed=0;align=center;html=1;shape=mxgraph.mockup.forms.rrect;rSize=0;strokeColor=#999999;fontColor=#999999;rounded=1;" vertex="1" parent="Zk7HNToO3OFMtX9oZNZT-55">
          <mxGeometry x="30" y="128" width="20" height="20" as="geometry" />
        </mxCell>
        <mxCell id="Zk7HNToO3OFMtX9oZNZT-95" value="31" style="strokeWidth=1;shadow=0;dashed=0;align=center;html=1;shape=mxgraph.mockup.forms.rrect;rSize=0;strokeColor=#999999;fontColor=#999999;rounded=1;" vertex="1" parent="Zk7HNToO3OFMtX9oZNZT-55">
          <mxGeometry x="50" y="128" width="20" height="20" as="geometry" />
        </mxCell>
        <mxCell id="Zk7HNToO3OFMtX9oZNZT-96" value="1" style="strokeWidth=1;shadow=0;dashed=0;align=center;html=1;shape=mxgraph.mockup.forms.rrect;rSize=0;strokeColor=#999999;fontColor=#999999;fillColor=#ddeeff;rounded=1;" vertex="1" parent="Zk7HNToO3OFMtX9oZNZT-55">
          <mxGeometry x="70" y="128" width="20" height="20" as="geometry" />
        </mxCell>
        <mxCell id="Zk7HNToO3OFMtX9oZNZT-97" value="2" style="strokeWidth=1;shadow=0;dashed=0;align=center;html=1;shape=mxgraph.mockup.forms.rrect;rSize=0;strokeColor=#999999;fontColor=#999999;fillColor=#ddeeff;rounded=1;" vertex="1" parent="Zk7HNToO3OFMtX9oZNZT-55">
          <mxGeometry x="90" y="128" width="20" height="20" as="geometry" />
        </mxCell>
        <mxCell id="Zk7HNToO3OFMtX9oZNZT-98" value="3" style="strokeWidth=1;shadow=0;dashed=0;align=center;html=1;shape=mxgraph.mockup.forms.rrect;rSize=0;strokeColor=#999999;fontColor=#999999;fillColor=#ddeeff;rounded=1;" vertex="1" parent="Zk7HNToO3OFMtX9oZNZT-55">
          <mxGeometry x="110" y="128" width="20" height="20" as="geometry" />
        </mxCell>
        <mxCell id="Zk7HNToO3OFMtX9oZNZT-99" value="4" style="strokeWidth=1;shadow=0;dashed=0;align=center;html=1;shape=mxgraph.mockup.forms.rrect;rSize=0;strokeColor=#999999;fontColor=#999999;fillColor=#ddeeff;rounded=1;" vertex="1" parent="Zk7HNToO3OFMtX9oZNZT-55">
          <mxGeometry x="130" y="128" width="20" height="20" as="geometry" />
        </mxCell>
        <mxCell id="Zk7HNToO3OFMtX9oZNZT-100" value="5" style="strokeWidth=1;shadow=0;dashed=0;align=center;html=1;shape=mxgraph.mockup.forms.rrect;rSize=0;strokeColor=#999999;fontColor=#999999;fillColor=#ddeeff;rounded=1;" vertex="1" parent="Zk7HNToO3OFMtX9oZNZT-55">
          <mxGeometry x="10" y="148" width="20" height="20" as="geometry" />
        </mxCell>
        <mxCell id="Zk7HNToO3OFMtX9oZNZT-101" value="6" style="strokeWidth=1;shadow=0;dashed=0;align=center;html=1;shape=mxgraph.mockup.forms.rrect;rSize=0;strokeColor=#999999;fontColor=#999999;fillColor=#ddeeff;rounded=1;" vertex="1" parent="Zk7HNToO3OFMtX9oZNZT-55">
          <mxGeometry x="30" y="148" width="20" height="20" as="geometry" />
        </mxCell>
        <mxCell id="Zk7HNToO3OFMtX9oZNZT-102" value="7" style="strokeWidth=1;shadow=0;dashed=0;align=center;html=1;shape=mxgraph.mockup.forms.rrect;rSize=0;strokeColor=#999999;fontColor=#999999;fillColor=#ddeeff;rounded=1;" vertex="1" parent="Zk7HNToO3OFMtX9oZNZT-55">
          <mxGeometry x="50" y="148" width="20" height="20" as="geometry" />
        </mxCell>
        <mxCell id="Zk7HNToO3OFMtX9oZNZT-103" value="8" style="strokeWidth=1;shadow=0;dashed=0;align=center;html=1;shape=mxgraph.mockup.forms.rrect;rSize=0;strokeColor=#999999;fontColor=#999999;fillColor=#ddeeff;rounded=1;" vertex="1" parent="Zk7HNToO3OFMtX9oZNZT-55">
          <mxGeometry x="70" y="148" width="20" height="20" as="geometry" />
        </mxCell>
        <mxCell id="Zk7HNToO3OFMtX9oZNZT-104" value="9" style="strokeWidth=1;shadow=0;dashed=0;align=center;html=1;shape=mxgraph.mockup.forms.rrect;rSize=0;strokeColor=#999999;fontColor=#999999;fillColor=#ddeeff;rounded=1;" vertex="1" parent="Zk7HNToO3OFMtX9oZNZT-55">
          <mxGeometry x="90" y="148" width="20" height="20" as="geometry" />
        </mxCell>
        <mxCell id="Zk7HNToO3OFMtX9oZNZT-105" value="10" style="strokeWidth=1;shadow=0;dashed=0;align=center;html=1;shape=mxgraph.mockup.forms.rrect;rSize=0;strokeColor=#999999;fontColor=#999999;fillColor=#ddeeff;rounded=1;" vertex="1" parent="Zk7HNToO3OFMtX9oZNZT-55">
          <mxGeometry x="110" y="148" width="20" height="20" as="geometry" />
        </mxCell>
        <mxCell id="Zk7HNToO3OFMtX9oZNZT-106" value="11" style="strokeWidth=1;shadow=0;dashed=0;align=center;html=1;shape=mxgraph.mockup.forms.rrect;rSize=0;strokeColor=#999999;fontColor=#999999;fillColor=#ddeeff;rounded=1;" vertex="1" parent="Zk7HNToO3OFMtX9oZNZT-55">
          <mxGeometry x="130" y="148" width="20" height="20" as="geometry" />
        </mxCell>
        <mxCell id="Zk7HNToO3OFMtX9oZNZT-107" value="24" style="strokeWidth=1;shadow=0;dashed=0;align=center;html=1;shape=mxgraph.mockup.forms.rrect;rSize=0;strokeColor=#ff0000;fontColor=#ffffff;strokeWidth=2;fillColor=#008cff;rounded=1;" vertex="1" parent="Zk7HNToO3OFMtX9oZNZT-55">
          <mxGeometry x="50" y="108" width="20" height="20" as="geometry" />
        </mxCell>
        <mxCell id="Zk7HNToO3OFMtX9oZNZT-108" value="" style="strokeWidth=1;shadow=0;dashed=0;align=center;html=1;shape=mxgraph.mockup.forms.rrect;rSize=5;strokeColor=#999999;fillColor=#ffffff;rounded=1;" vertex="1" parent="1">
          <mxGeometry x="470" width="160" height="175" as="geometry" />
        </mxCell>
        <mxCell id="Zk7HNToO3OFMtX9oZNZT-109" value="October 2014" style="strokeWidth=1;shadow=0;dashed=0;align=center;html=1;shape=mxgraph.mockup.forms.anchor;fontColor=#999999;rounded=1;" vertex="1" parent="Zk7HNToO3OFMtX9oZNZT-108">
          <mxGeometry x="30" y="8" width="100" height="20" as="geometry" />
        </mxCell>
        <mxCell id="Zk7HNToO3OFMtX9oZNZT-110" value="&lt;" style="strokeWidth=1;shadow=0;dashed=0;align=center;html=1;shape=mxgraph.mockup.forms.rrect;rSize=4;strokeColor=#999999;fontColor=#008cff;fontSize=19;fontStyle=1;rounded=1;" vertex="1" parent="Zk7HNToO3OFMtX9oZNZT-108">
          <mxGeometry x="8" y="8" width="25" height="20" as="geometry" />
        </mxCell>
        <mxCell id="Zk7HNToO3OFMtX9oZNZT-111" value="&gt;" style="strokeWidth=1;shadow=0;dashed=0;align=center;html=1;shape=mxgraph.mockup.forms.rrect;rSize=4;strokeColor=#999999;fontColor=#008cff;fontSize=19;fontStyle=1;rounded=1;" vertex="1" parent="Zk7HNToO3OFMtX9oZNZT-108">
          <mxGeometry x="127" y="8" width="25" height="20" as="geometry" />
        </mxCell>
        <mxCell id="Zk7HNToO3OFMtX9oZNZT-112" value="Mo" style="strokeWidth=1;shadow=0;dashed=0;align=center;html=1;shape=mxgraph.mockup.forms.anchor;fontColor=#999999;rounded=1;" vertex="1" parent="Zk7HNToO3OFMtX9oZNZT-108">
          <mxGeometry x="10" y="28" width="20" height="20" as="geometry" />
        </mxCell>
        <mxCell id="Zk7HNToO3OFMtX9oZNZT-113" value="Tu" style="strokeWidth=1;shadow=0;dashed=0;align=center;html=1;shape=mxgraph.mockup.forms.anchor;fontColor=#999999;rounded=1;" vertex="1" parent="Zk7HNToO3OFMtX9oZNZT-108">
          <mxGeometry x="30" y="28" width="20" height="20" as="geometry" />
        </mxCell>
        <mxCell id="Zk7HNToO3OFMtX9oZNZT-114" value="We" style="strokeWidth=1;shadow=0;dashed=0;align=center;html=1;shape=mxgraph.mockup.forms.anchor;fontColor=#999999;rounded=1;" vertex="1" parent="Zk7HNToO3OFMtX9oZNZT-108">
          <mxGeometry x="50" y="28" width="20" height="20" as="geometry" />
        </mxCell>
        <mxCell id="Zk7HNToO3OFMtX9oZNZT-115" value="Th" style="strokeWidth=1;shadow=0;dashed=0;align=center;html=1;shape=mxgraph.mockup.forms.anchor;fontColor=#999999;rounded=1;" vertex="1" parent="Zk7HNToO3OFMtX9oZNZT-108">
          <mxGeometry x="70" y="28" width="20" height="20" as="geometry" />
        </mxCell>
        <mxCell id="Zk7HNToO3OFMtX9oZNZT-116" value="Fr" style="strokeWidth=1;shadow=0;dashed=0;align=center;html=1;shape=mxgraph.mockup.forms.anchor;fontColor=#999999;rounded=1;" vertex="1" parent="Zk7HNToO3OFMtX9oZNZT-108">
          <mxGeometry x="90" y="28" width="20" height="20" as="geometry" />
        </mxCell>
        <mxCell id="Zk7HNToO3OFMtX9oZNZT-117" value="Sa" style="strokeWidth=1;shadow=0;dashed=0;align=center;html=1;shape=mxgraph.mockup.forms.anchor;fontColor=#999999;rounded=1;" vertex="1" parent="Zk7HNToO3OFMtX9oZNZT-108">
          <mxGeometry x="110" y="28" width="20" height="20" as="geometry" />
        </mxCell>
        <mxCell id="Zk7HNToO3OFMtX9oZNZT-118" value="Su" style="strokeWidth=1;shadow=0;dashed=0;align=center;html=1;shape=mxgraph.mockup.forms.anchor;fontColor=#999999;rounded=1;" vertex="1" parent="Zk7HNToO3OFMtX9oZNZT-108">
          <mxGeometry x="130" y="28" width="20" height="20" as="geometry" />
        </mxCell>
        <mxCell id="Zk7HNToO3OFMtX9oZNZT-119" value="1" style="strokeWidth=1;shadow=0;dashed=0;align=center;html=1;shape=mxgraph.mockup.forms.rrect;rSize=0;strokeColor=#999999;fontColor=#999999;rounded=1;" vertex="1" parent="Zk7HNToO3OFMtX9oZNZT-108">
          <mxGeometry x="10" y="48" width="20" height="20" as="geometry" />
        </mxCell>
        <mxCell id="Zk7HNToO3OFMtX9oZNZT-120" value="2" style="strokeWidth=1;shadow=0;dashed=0;align=center;html=1;shape=mxgraph.mockup.forms.rrect;rSize=0;strokeColor=#999999;fontColor=#999999;rounded=1;" vertex="1" parent="Zk7HNToO3OFMtX9oZNZT-108">
          <mxGeometry x="30" y="48" width="20" height="20" as="geometry" />
        </mxCell>
        <mxCell id="Zk7HNToO3OFMtX9oZNZT-121" value="3" style="strokeWidth=1;shadow=0;dashed=0;align=center;html=1;shape=mxgraph.mockup.forms.rrect;rSize=0;strokeColor=#999999;fontColor=#999999;rounded=1;" vertex="1" parent="Zk7HNToO3OFMtX9oZNZT-108">
          <mxGeometry x="50" y="48" width="20" height="20" as="geometry" />
        </mxCell>
        <mxCell id="Zk7HNToO3OFMtX9oZNZT-122" value="4" style="strokeWidth=1;shadow=0;dashed=0;align=center;html=1;shape=mxgraph.mockup.forms.rrect;rSize=0;strokeColor=#999999;fontColor=#999999;rounded=1;" vertex="1" parent="Zk7HNToO3OFMtX9oZNZT-108">
          <mxGeometry x="70" y="48" width="20" height="20" as="geometry" />
        </mxCell>
        <mxCell id="Zk7HNToO3OFMtX9oZNZT-123" value="5" style="strokeWidth=1;shadow=0;dashed=0;align=center;html=1;shape=mxgraph.mockup.forms.rrect;rSize=0;strokeColor=#999999;fontColor=#999999;rounded=1;" vertex="1" parent="Zk7HNToO3OFMtX9oZNZT-108">
          <mxGeometry x="90" y="48" width="20" height="20" as="geometry" />
        </mxCell>
        <mxCell id="Zk7HNToO3OFMtX9oZNZT-124" value="6" style="strokeWidth=1;shadow=0;dashed=0;align=center;html=1;shape=mxgraph.mockup.forms.rrect;rSize=0;strokeColor=#999999;fontColor=#999999;rounded=1;" vertex="1" parent="Zk7HNToO3OFMtX9oZNZT-108">
          <mxGeometry x="110" y="48" width="20" height="20" as="geometry" />
        </mxCell>
        <mxCell id="Zk7HNToO3OFMtX9oZNZT-125" value="7" style="strokeWidth=1;shadow=0;dashed=0;align=center;html=1;shape=mxgraph.mockup.forms.rrect;rSize=0;strokeColor=#999999;fontColor=#999999;rounded=1;" vertex="1" parent="Zk7HNToO3OFMtX9oZNZT-108">
          <mxGeometry x="130" y="48" width="20" height="20" as="geometry" />
        </mxCell>
        <mxCell id="Zk7HNToO3OFMtX9oZNZT-126" value="8" style="strokeWidth=1;shadow=0;dashed=0;align=center;html=1;shape=mxgraph.mockup.forms.rrect;rSize=0;strokeColor=#999999;fontColor=#999999;rounded=1;" vertex="1" parent="Zk7HNToO3OFMtX9oZNZT-108">
          <mxGeometry x="10" y="68" width="20" height="20" as="geometry" />
        </mxCell>
        <mxCell id="Zk7HNToO3OFMtX9oZNZT-127" value="9" style="strokeWidth=1;shadow=0;dashed=0;align=center;html=1;shape=mxgraph.mockup.forms.rrect;rSize=0;strokeColor=#999999;fontColor=#999999;rounded=1;" vertex="1" parent="Zk7HNToO3OFMtX9oZNZT-108">
          <mxGeometry x="30" y="68" width="20" height="20" as="geometry" />
        </mxCell>
        <mxCell id="Zk7HNToO3OFMtX9oZNZT-128" value="10" style="strokeWidth=1;shadow=0;dashed=0;align=center;html=1;shape=mxgraph.mockup.forms.rrect;rSize=0;strokeColor=#999999;fontColor=#999999;rounded=1;" vertex="1" parent="Zk7HNToO3OFMtX9oZNZT-108">
          <mxGeometry x="50" y="68" width="20" height="20" as="geometry" />
        </mxCell>
        <mxCell id="Zk7HNToO3OFMtX9oZNZT-129" value="11" style="strokeWidth=1;shadow=0;dashed=0;align=center;html=1;shape=mxgraph.mockup.forms.rrect;rSize=0;strokeColor=#999999;fontColor=#999999;rounded=1;" vertex="1" parent="Zk7HNToO3OFMtX9oZNZT-108">
          <mxGeometry x="70" y="68" width="20" height="20" as="geometry" />
        </mxCell>
        <mxCell id="Zk7HNToO3OFMtX9oZNZT-130" value="12" style="strokeWidth=1;shadow=0;dashed=0;align=center;html=1;shape=mxgraph.mockup.forms.rrect;rSize=0;strokeColor=#999999;fontColor=#999999;rounded=1;" vertex="1" parent="Zk7HNToO3OFMtX9oZNZT-108">
          <mxGeometry x="90" y="68" width="20" height="20" as="geometry" />
        </mxCell>
        <mxCell id="Zk7HNToO3OFMtX9oZNZT-131" value="13" style="strokeWidth=1;shadow=0;dashed=0;align=center;html=1;shape=mxgraph.mockup.forms.rrect;rSize=0;strokeColor=#999999;fontColor=#999999;rounded=1;" vertex="1" parent="Zk7HNToO3OFMtX9oZNZT-108">
          <mxGeometry x="110" y="68" width="20" height="20" as="geometry" />
        </mxCell>
        <mxCell id="Zk7HNToO3OFMtX9oZNZT-132" value="14" style="strokeWidth=1;shadow=0;dashed=0;align=center;html=1;shape=mxgraph.mockup.forms.rrect;rSize=0;strokeColor=#999999;fontColor=#999999;rounded=1;" vertex="1" parent="Zk7HNToO3OFMtX9oZNZT-108">
          <mxGeometry x="130" y="68" width="20" height="20" as="geometry" />
        </mxCell>
        <mxCell id="Zk7HNToO3OFMtX9oZNZT-133" value="15" style="strokeWidth=1;shadow=0;dashed=0;align=center;html=1;shape=mxgraph.mockup.forms.rrect;rSize=0;strokeColor=#999999;fontColor=#999999;rounded=1;" vertex="1" parent="Zk7HNToO3OFMtX9oZNZT-108">
          <mxGeometry x="10" y="88" width="20" height="20" as="geometry" />
        </mxCell>
        <mxCell id="Zk7HNToO3OFMtX9oZNZT-134" value="16" style="strokeWidth=1;shadow=0;dashed=0;align=center;html=1;shape=mxgraph.mockup.forms.rrect;rSize=0;strokeColor=#999999;fontColor=#999999;rounded=1;" vertex="1" parent="Zk7HNToO3OFMtX9oZNZT-108">
          <mxGeometry x="30" y="88" width="20" height="20" as="geometry" />
        </mxCell>
        <mxCell id="Zk7HNToO3OFMtX9oZNZT-135" value="17" style="strokeWidth=1;shadow=0;dashed=0;align=center;html=1;shape=mxgraph.mockup.forms.rrect;rSize=0;strokeColor=#999999;fontColor=#999999;rounded=1;" vertex="1" parent="Zk7HNToO3OFMtX9oZNZT-108">
          <mxGeometry x="50" y="88" width="20" height="20" as="geometry" />
        </mxCell>
        <mxCell id="Zk7HNToO3OFMtX9oZNZT-136" value="18" style="strokeWidth=1;shadow=0;dashed=0;align=center;html=1;shape=mxgraph.mockup.forms.rrect;rSize=0;strokeColor=#999999;fontColor=#999999;rounded=1;" vertex="1" parent="Zk7HNToO3OFMtX9oZNZT-108">
          <mxGeometry x="70" y="88" width="20" height="20" as="geometry" />
        </mxCell>
        <mxCell id="Zk7HNToO3OFMtX9oZNZT-137" value="19" style="strokeWidth=1;shadow=0;dashed=0;align=center;html=1;shape=mxgraph.mockup.forms.rrect;rSize=0;strokeColor=#999999;fontColor=#999999;rounded=1;" vertex="1" parent="Zk7HNToO3OFMtX9oZNZT-108">
          <mxGeometry x="90" y="88" width="20" height="20" as="geometry" />
        </mxCell>
        <mxCell id="Zk7HNToO3OFMtX9oZNZT-138" value="20" style="strokeWidth=1;shadow=0;dashed=0;align=center;html=1;shape=mxgraph.mockup.forms.rrect;rSize=0;strokeColor=#999999;fontColor=#999999;rounded=1;" vertex="1" parent="Zk7HNToO3OFMtX9oZNZT-108">
          <mxGeometry x="110" y="88" width="20" height="20" as="geometry" />
        </mxCell>
        <mxCell id="Zk7HNToO3OFMtX9oZNZT-139" value="21" style="strokeWidth=1;shadow=0;dashed=0;align=center;html=1;shape=mxgraph.mockup.forms.rrect;rSize=0;strokeColor=#999999;fontColor=#999999;rounded=1;" vertex="1" parent="Zk7HNToO3OFMtX9oZNZT-108">
          <mxGeometry x="130" y="88" width="20" height="20" as="geometry" />
        </mxCell>
        <mxCell id="Zk7HNToO3OFMtX9oZNZT-140" value="22" style="strokeWidth=1;shadow=0;dashed=0;align=center;html=1;shape=mxgraph.mockup.forms.rrect;rSize=0;strokeColor=#999999;fontColor=#999999;rounded=1;" vertex="1" parent="Zk7HNToO3OFMtX9oZNZT-108">
          <mxGeometry x="10" y="108" width="20" height="20" as="geometry" />
        </mxCell>
        <mxCell id="Zk7HNToO3OFMtX9oZNZT-141" value="23" style="strokeWidth=1;shadow=0;dashed=0;align=center;html=1;shape=mxgraph.mockup.forms.rrect;rSize=0;strokeColor=#999999;fontColor=#999999;rounded=1;" vertex="1" parent="Zk7HNToO3OFMtX9oZNZT-108">
          <mxGeometry x="30" y="108" width="20" height="20" as="geometry" />
        </mxCell>
        <mxCell id="Zk7HNToO3OFMtX9oZNZT-142" value="25" style="strokeWidth=1;shadow=0;dashed=0;align=center;html=1;shape=mxgraph.mockup.forms.rrect;rSize=0;strokeColor=#999999;fontColor=#999999;rounded=1;" vertex="1" parent="Zk7HNToO3OFMtX9oZNZT-108">
          <mxGeometry x="70" y="108" width="20" height="20" as="geometry" />
        </mxCell>
        <mxCell id="Zk7HNToO3OFMtX9oZNZT-143" value="26" style="strokeWidth=1;shadow=0;dashed=0;align=center;html=1;shape=mxgraph.mockup.forms.rrect;rSize=0;strokeColor=#999999;fontColor=#999999;rounded=1;" vertex="1" parent="Zk7HNToO3OFMtX9oZNZT-108">
          <mxGeometry x="90" y="108" width="20" height="20" as="geometry" />
        </mxCell>
        <mxCell id="Zk7HNToO3OFMtX9oZNZT-144" value="27" style="strokeWidth=1;shadow=0;dashed=0;align=center;html=1;shape=mxgraph.mockup.forms.rrect;rSize=0;strokeColor=#999999;fontColor=#999999;rounded=1;" vertex="1" parent="Zk7HNToO3OFMtX9oZNZT-108">
          <mxGeometry x="110" y="108" width="20" height="20" as="geometry" />
        </mxCell>
        <mxCell id="Zk7HNToO3OFMtX9oZNZT-145" value="28" style="strokeWidth=1;shadow=0;dashed=0;align=center;html=1;shape=mxgraph.mockup.forms.rrect;rSize=0;strokeColor=#999999;fontColor=#999999;rounded=1;" vertex="1" parent="Zk7HNToO3OFMtX9oZNZT-108">
          <mxGeometry x="130" y="108" width="20" height="20" as="geometry" />
        </mxCell>
        <mxCell id="Zk7HNToO3OFMtX9oZNZT-146" value="29" style="strokeWidth=1;shadow=0;dashed=0;align=center;html=1;shape=mxgraph.mockup.forms.rrect;rSize=0;strokeColor=#999999;fontColor=#999999;rounded=1;" vertex="1" parent="Zk7HNToO3OFMtX9oZNZT-108">
          <mxGeometry x="10" y="128" width="20" height="20" as="geometry" />
        </mxCell>
        <mxCell id="Zk7HNToO3OFMtX9oZNZT-147" value="30" style="strokeWidth=1;shadow=0;dashed=0;align=center;html=1;shape=mxgraph.mockup.forms.rrect;rSize=0;strokeColor=#999999;fontColor=#999999;rounded=1;" vertex="1" parent="Zk7HNToO3OFMtX9oZNZT-108">
          <mxGeometry x="30" y="128" width="20" height="20" as="geometry" />
        </mxCell>
        <mxCell id="Zk7HNToO3OFMtX9oZNZT-148" value="31" style="strokeWidth=1;shadow=0;dashed=0;align=center;html=1;shape=mxgraph.mockup.forms.rrect;rSize=0;strokeColor=#999999;fontColor=#999999;rounded=1;" vertex="1" parent="Zk7HNToO3OFMtX9oZNZT-108">
          <mxGeometry x="50" y="128" width="20" height="20" as="geometry" />
        </mxCell>
        <mxCell id="Zk7HNToO3OFMtX9oZNZT-149" value="1" style="strokeWidth=1;shadow=0;dashed=0;align=center;html=1;shape=mxgraph.mockup.forms.rrect;rSize=0;strokeColor=#999999;fontColor=#999999;fillColor=#ddeeff;rounded=1;" vertex="1" parent="Zk7HNToO3OFMtX9oZNZT-108">
          <mxGeometry x="70" y="128" width="20" height="20" as="geometry" />
        </mxCell>
        <mxCell id="Zk7HNToO3OFMtX9oZNZT-150" value="2" style="strokeWidth=1;shadow=0;dashed=0;align=center;html=1;shape=mxgraph.mockup.forms.rrect;rSize=0;strokeColor=#999999;fontColor=#999999;fillColor=#ddeeff;rounded=1;" vertex="1" parent="Zk7HNToO3OFMtX9oZNZT-108">
          <mxGeometry x="90" y="128" width="20" height="20" as="geometry" />
        </mxCell>
        <mxCell id="Zk7HNToO3OFMtX9oZNZT-151" value="3" style="strokeWidth=1;shadow=0;dashed=0;align=center;html=1;shape=mxgraph.mockup.forms.rrect;rSize=0;strokeColor=#999999;fontColor=#999999;fillColor=#ddeeff;rounded=1;" vertex="1" parent="Zk7HNToO3OFMtX9oZNZT-108">
          <mxGeometry x="110" y="128" width="20" height="20" as="geometry" />
        </mxCell>
        <mxCell id="Zk7HNToO3OFMtX9oZNZT-152" value="4" style="strokeWidth=1;shadow=0;dashed=0;align=center;html=1;shape=mxgraph.mockup.forms.rrect;rSize=0;strokeColor=#999999;fontColor=#999999;fillColor=#ddeeff;rounded=1;" vertex="1" parent="Zk7HNToO3OFMtX9oZNZT-108">
          <mxGeometry x="130" y="128" width="20" height="20" as="geometry" />
        </mxCell>
        <mxCell id="Zk7HNToO3OFMtX9oZNZT-153" value="5" style="strokeWidth=1;shadow=0;dashed=0;align=center;html=1;shape=mxgraph.mockup.forms.rrect;rSize=0;strokeColor=#999999;fontColor=#999999;fillColor=#ddeeff;rounded=1;" vertex="1" parent="Zk7HNToO3OFMtX9oZNZT-108">
          <mxGeometry x="10" y="148" width="20" height="20" as="geometry" />
        </mxCell>
        <mxCell id="Zk7HNToO3OFMtX9oZNZT-154" value="6" style="strokeWidth=1;shadow=0;dashed=0;align=center;html=1;shape=mxgraph.mockup.forms.rrect;rSize=0;strokeColor=#999999;fontColor=#999999;fillColor=#ddeeff;rounded=1;" vertex="1" parent="Zk7HNToO3OFMtX9oZNZT-108">
          <mxGeometry x="30" y="148" width="20" height="20" as="geometry" />
        </mxCell>
        <mxCell id="Zk7HNToO3OFMtX9oZNZT-155" value="7" style="strokeWidth=1;shadow=0;dashed=0;align=center;html=1;shape=mxgraph.mockup.forms.rrect;rSize=0;strokeColor=#999999;fontColor=#999999;fillColor=#ddeeff;rounded=1;" vertex="1" parent="Zk7HNToO3OFMtX9oZNZT-108">
          <mxGeometry x="50" y="148" width="20" height="20" as="geometry" />
        </mxCell>
        <mxCell id="Zk7HNToO3OFMtX9oZNZT-156" value="8" style="strokeWidth=1;shadow=0;dashed=0;align=center;html=1;shape=mxgraph.mockup.forms.rrect;rSize=0;strokeColor=#999999;fontColor=#999999;fillColor=#ddeeff;rounded=1;" vertex="1" parent="Zk7HNToO3OFMtX9oZNZT-108">
          <mxGeometry x="70" y="148" width="20" height="20" as="geometry" />
        </mxCell>
        <mxCell id="Zk7HNToO3OFMtX9oZNZT-157" value="9" style="strokeWidth=1;shadow=0;dashed=0;align=center;html=1;shape=mxgraph.mockup.forms.rrect;rSize=0;strokeColor=#999999;fontColor=#999999;fillColor=#ddeeff;rounded=1;" vertex="1" parent="Zk7HNToO3OFMtX9oZNZT-108">
          <mxGeometry x="90" y="148" width="20" height="20" as="geometry" />
        </mxCell>
        <mxCell id="Zk7HNToO3OFMtX9oZNZT-158" value="10" style="strokeWidth=1;shadow=0;dashed=0;align=center;html=1;shape=mxgraph.mockup.forms.rrect;rSize=0;strokeColor=#999999;fontColor=#999999;fillColor=#ddeeff;rounded=1;" vertex="1" parent="Zk7HNToO3OFMtX9oZNZT-108">
          <mxGeometry x="110" y="148" width="20" height="20" as="geometry" />
        </mxCell>
        <mxCell id="Zk7HNToO3OFMtX9oZNZT-159" value="11" style="strokeWidth=1;shadow=0;dashed=0;align=center;html=1;shape=mxgraph.mockup.forms.rrect;rSize=0;strokeColor=#999999;fontColor=#999999;fillColor=#ddeeff;rounded=1;" vertex="1" parent="Zk7HNToO3OFMtX9oZNZT-108">
          <mxGeometry x="130" y="148" width="20" height="20" as="geometry" />
        </mxCell>
        <mxCell id="Zk7HNToO3OFMtX9oZNZT-160" value="24" style="strokeWidth=1;shadow=0;dashed=0;align=center;html=1;shape=mxgraph.mockup.forms.rrect;rSize=0;strokeColor=#ff0000;fontColor=#ffffff;strokeWidth=2;fillColor=#008cff;rounded=1;" vertex="1" parent="Zk7HNToO3OFMtX9oZNZT-108">
          <mxGeometry x="50" y="108" width="20" height="20" as="geometry" />
        </mxCell>
        <mxCell id="Zk7HNToO3OFMtX9oZNZT-161" value="Xuất phát" style="whiteSpace=wrap;html=1;align=center;rounded=1;" vertex="1" parent="1">
          <mxGeometry x="230" y="-80" width="100" height="30" as="geometry" />
        </mxCell>
        <mxCell id="Zk7HNToO3OFMtX9oZNZT-162" value="Điểm đến" style="whiteSpace=wrap;html=1;align=center;rounded=1;" vertex="1" parent="1">
          <mxGeometry x="502.5" y="-80" width="95" height="30" as="geometry" />
        </mxCell>
        <mxCell id="Zk7HNToO3OFMtX9oZNZT-163" value="Trà Vinh" style="strokeWidth=1;shadow=0;dashed=0;align=center;html=1;shape=mxgraph.mockup.forms.comboBox;strokeColor=#999999;fillColor=#ddeeff;align=left;fillColor2=#aaddff;mainText=;fontColor=#666666;fontSize=17;spacingLeft=3;rounded=1;" vertex="1" parent="1">
          <mxGeometry x="205" y="-40" width="150" height="30" as="geometry" />
        </mxCell>
        <mxCell id="Zk7HNToO3OFMtX9oZNZT-164" value="Cần Thơ" style="strokeWidth=1;shadow=0;dashed=0;align=center;html=1;shape=mxgraph.mockup.forms.comboBox;strokeColor=#999999;fillColor=#ddeeff;align=left;fillColor2=#aaddff;mainText=;fontColor=#666666;fontSize=17;spacingLeft=3;rounded=1;" vertex="1" parent="1">
          <mxGeometry x="475" y="-40" width="150" height="30" as="geometry" />
        </mxCell>
        <mxCell id="Zk7HNToO3OFMtX9oZNZT-165" value="Tạo" style="strokeWidth=1;shadow=0;dashed=0;align=center;html=1;shape=mxgraph.mockup.buttons.button;strokeColor=#666666;fontColor=#ffffff;mainText=;buttonStyle=round;fontSize=17;fontStyle=1;fillColor=#008cff;whiteSpace=wrap;rounded=1;" vertex="1" parent="1">
          <mxGeometry x="370" y="200" width="90" height="40" as="geometry" />
        </mxCell>
      </root>
    </mxGraphModel>
  </diagram>
</mxfile>
